HIERARCHY
ROOT Hips
{
	OFFSET 0.000000 0.000000 0.000000
	CHANNELS 6 Xposition Yposition Zposition Zrotation Yrotation Xrotation 
	JOINT LHipJoint
	{
		OFFSET 0.000000 0.000000 0.000000
		CHANNELS 3 Zrotation Yrotation Xrotation
		JOINT LeftUpLeg
		{
			OFFSET 1.363060 -1.794630 0.839290
			CHANNELS 3 Zrotation Yrotation Xrotation
			JOINT LeftLeg
			{
				OFFSET 2.448110 -6.726130 0.000000
				CHANNELS 3 Zrotation Yrotation Xrotation
				JOINT LeftFoot
				{
					OFFSET 2.562200 -7.039590 0.000000
					CHANNELS 3 Zrotation Yrotation Xrotation
					JOINT LeftToeBase
					{
						OFFSET 0.157640 -0.433110 2.322550
						CHANNELS 3 Zrotation Yrotation Xrotation
						End Site
						{
							OFFSET 0.000000 0.000000 0.000000
						}
					}
				}
			}
		}
	}
	JOINT RHipJoint
	{
		OFFSET 0.000000 0.000000 0.000000
		CHANNELS 3 Zrotation Yrotation Xrotation
		JOINT RightUpLeg
		{
			OFFSET -1.305520 -1.794630 0.839290
			CHANNELS 3 Zrotation Yrotation Xrotation
			JOINT RightLeg
			{
				OFFSET -2.542530 -6.985550 0.000000
				CHANNELS 3 Zrotation Yrotation Xrotation
				JOINT RightFoot
				{
					OFFSET -2.568260 -7.056230 0.000000
					CHANNELS 3 Zrotation Yrotation Xrotation
					JOINT RightToeBase
					{
						OFFSET -0.164730 -0.452590 2.363150
						CHANNELS 3 Zrotation Yrotation Xrotation
						End Site
						{
							OFFSET 0.000000 0.000000 0.000000
						}
					}
				}
			}
		}
	}
	JOINT LowerBack
	{
		OFFSET 0.000000 0.000000 0.000000
		CHANNELS 3 Zrotation Yrotation Xrotation
		JOINT Spine
		{
			OFFSET 0.028270 2.035590 -0.193380
			CHANNELS 3 Zrotation Yrotation Xrotation
			JOINT Spine1
			{
				OFFSET 0.056720 2.048850 -0.042750
				CHANNELS 3 Zrotation Yrotation Xrotation
				JOINT Neck
				{
					OFFSET 0.000000 0.000000 0.000000
					CHANNELS 3 Zrotation Yrotation Xrotation
					JOINT Neck1
					{
						OFFSET -0.054170 1.746240 0.172020
						CHANNELS 3 Zrotation Yrotation Xrotation
						JOINT Head
						{
							OFFSET 0.104070 1.761360 -0.123970
							CHANNELS 3 Zrotation Yrotation Xrotation
							End Site
							{
								OFFSET 0.000000 0.000000 0.000000
							}
						}
					}
				}
				JOINT LeftShoulder
				{
					OFFSET 0.000000 0.000000 0.000000
					CHANNELS 3 Zrotation Yrotation Xrotation
					JOINT LeftArm
					{
						OFFSET 3.362410 1.200890 -0.311210
						CHANNELS 3 Zrotation Yrotation Xrotation
						JOINT LeftForeArm
						{
							OFFSET 4.983000 -0.000000 -0.000000
							CHANNELS 3 Zrotation Yrotation Xrotation
							JOINT LeftHand
							{
								OFFSET 3.483560 -0.000000 -0.000000
								CHANNELS 3 Zrotation Yrotation Xrotation
								JOINT LeftFingerBase
								{
									OFFSET 0.000000 0.000000 0.000000
									CHANNELS 3 Zrotation Yrotation Xrotation
									JOINT LeftHandIndex1
									{
										OFFSET 0.715260 -0.000000 -0.000000
										CHANNELS 3 Zrotation Yrotation Xrotation
										End Site
										{
											OFFSET 0.000000 0.000000 0.000000
										}
									}
								}
								JOINT LThumb
								{
									OFFSET 0.000000 0.000000 0.000000
									CHANNELS 3 Zrotation Yrotation Xrotation
									End Site
									{
										OFFSET 0.000000 0.000000 0.000000
									}
								}
							}
						}
					}
				}
				JOINT RightShoulder
				{
					OFFSET 0.000000 0.000000 0.000000
					CHANNELS 3 Zrotation Yrotation Xrotation
					JOINT RightArm
					{
						OFFSET -3.136600 1.374050 -0.404650
						CHANNELS 3 Zrotation Yrotation Xrotation
						JOINT RightForeArm
						{
							OFFSET -5.241900 -0.000000 -0.000000
							CHANNELS 3 Zrotation Yrotation Xrotation
							JOINT RightHand
							{
								OFFSET -3.444170 -0.000000 -0.000000
								CHANNELS 3 Zrotation Yrotation Xrotation
								JOINT RightFingerBase
								{
									OFFSET 0.000000 0.000000 0.000000
									CHANNELS 3 Zrotation Yrotation Xrotation
									JOINT RightHandIndex1
									{
										OFFSET -0.622530 -0.000000 -0.000000
										CHANNELS 3 Zrotation Yrotation Xrotation
										End Site
										{
											OFFSET 0.000000 0.000000 0.000000
										}
									}
								}
								JOINT RThumb
								{
									OFFSET 0.000000 0.000000 0.000000
									CHANNELS 3 Zrotation Yrotation Xrotation
									End Site
									{
										OFFSET 0.000000 0.000000 0.000000
									}
								}
							}
						}
					}
				}
			}
		}
	}
}
MOTION
Frames: 6
Frame Time: 0.008333
-37.536365 16.953261 -11.921918 46.970705 71.646146 52.211318 -2.683069 -0.462953 2.636897 -13.954527 10.109368 -10.771850 1.879020 12.415204 37.938944 4.819447 -10.802752 14.833842 5.721500 -14.152900 -43.853400 -2.594167 2.909051 -3.557091 15.959606 6.486808 -40.228774 -22.917700 -22.766559 96.856380 3.343309 -11.665781 2.874682 -1.286600 7.187700 -20.272600 -10.844403 -6.552551 25.180087 1.174601 -9.469730 -2.851462 7.273718 -5.261942 0.002149 -10.496591 -5.479727 -5.052153 5.654912 -7.314973 2.595314 7.864400 -1.377000 -3.976700 1.486072 -0.446800 1.345767 -73.258233 -14.199292 32.808743 116.110722 -60.181610 -83.102336 0.447203 -0.121313 -9.108507 21.983245 31.931138 11.905000 -7.125000 0.000000 0.000000 -13.082900 63.666100 -5.972800 -4.678500 0.902782 2.410621 76.731545 14.849761 19.386060 -137.152137 48.014013 -99.690321 0.374698 -0.226794 -22.842809 -48.246954 36.524240 -34.131300 7.125000 0.000000 0.000000 -7.359300 18.195000 -9.351400 
-37.348050 16.978069 -11.852058 46.552443 71.575331 51.963841 -2.706276 -0.335700 2.812044 -13.714564 10.133361 -10.178932 1.671112 12.152661 37.232394 4.776634 -10.606231 16.028665 5.108382 -13.504823 -41.288816 -2.570726 2.963867 -3.641903 15.960764 6.966663 -40.758298 -22.537506 -22.909337 95.710708 3.353809 -11.656799 2.641239 -1.123396 6.732638 -18.925648 -10.842388 -6.654458 24.860863 1.190609 -9.571275 -2.866349 7.348866 -5.336611 0.065463 -10.567447 -5.316905 -5.126407 5.606620 -7.072146 2.685988 7.849910 -1.278458 -3.933900 1.468032 -0.430304 1.342628 -74.497170 -16.258307 35.019440 115.539331 -60.246451 -82.613018 0.452203 -0.088853 -9.650586 23.443316 32.180746 12.847900 -7.125000 0.000000 0.000000 -11.550600 64.289400 -5.431200 -4.719504 0.849122 2.400719 78.815557 15.284110 22.807412 -137.208933 47.982617 -99.712048 0.385700 -0.227266 -22.701827 -47.203175 34.550168 -31.940200 7.125000 0.000000 0.000000 -7.516400 15.559300 -9.324900 
-37.159736 17.002878 -11.782199 46.136699 71.503949 51.718917 -2.729094 -0.208375 2.987139 -13.474334 10.154908 -9.585849 1.466718 11.887618 36.527466 4.738018 -10.408840 17.222796 4.526794 -12.830249 -38.736267 -2.547364 3.018718 -3.726698 15.957451 7.446539 -41.288407 -22.153837 -23.045093 94.562686 3.364271 -11.647775 2.407804 -0.971110 6.273781 -17.580891 -10.839801 -6.756353 24.541565 1.206649 -9.672816 -2.881268 7.423940 -5.411362 0.128687 -10.638496 -5.154174 -5.200844 5.558740 -6.829241 2.776410 7.835494 -1.179905 -3.891126 1.449992 -0.413809 1.339484 -76.243403 -18.156898 37.277270 114.187289 -60.497477 -81.502533 0.481481 -0.065870 -9.765441 25.095942 32.025840 13.776300 -7.125000 0.000000 0.000000 -9.479900 64.583500 -4.513000 -4.760498 0.795456 2.390856 80.942376 15.345166 26.635332 -137.102611 48.035844 -99.582779 0.391751 -0.239766 -22.409045 -46.729161 34.456032 -31.467000 7.125000 0.000000 0.000000 -7.302800 15.241500 -9.028000 
-36.971421 17.027686 -11.712339 45.723465 71.432008 51.476538 -2.751522 -0.080982 3.162182 -13.233876 10.174006 -8.992646 1.265868 11.620142 35.824198 4.703616 -10.210708 18.415998 3.978140 -12.131312 -36.198046 -2.524083 3.073603 -3.811474 15.949652 7.926358 -41.819137 -21.766921 -23.173735 93.412603 3.374695 -11.638710 2.174379 -0.829827 5.811526 -16.238576 -10.836641 -6.858232 24.222194 1.222721 -9.774353 -2.896222 7.498940 -5.486196 0.191821 -10.709740 -4.991535 -5.275465 5.511270 -6.586263 2.866583 7.821152 -1.081342 -3.848379 1.431951 -0.397314 1.336334 -77.812355 -19.641313 39.804115 113.249235 -60.658542 -80.712533 0.511624 -0.034926 -10.001591 27.040467 31.868158 14.891900 -7.125000 0.000000 0.000000 -7.007600 64.956400 -3.390200 -4.801483 0.741782 2.381031 83.183356 15.142196 30.479682 -136.943117 48.095274 -99.406755 0.397013 -0.264636 -21.519695 -46.793079 35.361551 -32.113500 7.125000 0.000000 0.000000 -7.027300 16.279200 -8.770500 
-36.783344 17.051296 -11.643969 45.365976 71.337361 51.296165 -2.781013 0.044831 3.339253 -13.024923 10.175518 -8.401358 1.064298 11.344493 35.085501 4.650934 -9.919502 19.614633 3.553540 -11.541395 -34.128276 -2.496966 3.128254 -3.895794 15.894143 8.367655 -42.319976 -21.367132 -23.293604 92.219265 3.389813 -11.647399 2.037892 -0.751380 5.536356 -15.444957 -10.856436 -6.960783 23.899328 1.240295 -9.881466 -2.912587 7.591757 -5.564797 0.249804 -10.784963 -4.828747 -5.344262 5.456730 -6.341592 2.949435 7.795463 -0.981608 -3.815841 1.420410 -0.380630 1.333622 -78.855105 -21.172938 42.554557 112.266883 -60.807769 -79.903337 0.518879 -0.040540 -10.381931 27.354502 32.077317 15.174300 -7.125000 0.000000 0.000000 -6.775100 65.274900 -3.327200 -4.839872 0.688776 2.371123 85.257068 14.872213 34.027962 -136.865307 48.100464 -99.314462 0.406251 -0.283724 -20.560772 -46.929810 34.986000 -32.021400 7.125000 0.000000 0.000000 -7.219500 15.968000 -8.986900 
-36.595732 17.072561 -11.578516 45.115043 71.199108 51.234599 -2.824701 0.167533 3.520316 -12.878157 10.145601 -7.814002 0.858413 11.054755 34.275879 4.562455 -9.445753 20.824349 3.321420 -11.198050 -32.950757 -2.462260 3.182422 -3.979232 15.750555 8.733043 -42.762160 -20.944980 -23.402252 90.942643 3.414159 -11.690922 2.091131 -0.778250 5.632257 -15.721118 -10.921703 -7.064932 23.569756 1.260789 -9.999498 -2.931697 7.719532 -5.650711 0.297731 -10.867756 -4.665567 -5.401508 5.387912 -6.093668 3.018140 7.747459 -0.879594 -3.803303 1.421594 -0.363570 1.331774 -80.021440 -22.827166 45.496775 110.990490 -61.001038 -78.864200 0.508376 -0.061738 -10.791740 26.799099 32.726655 15.096600 -7.125000 0.000000 0.000000 -7.940900 65.800600 -3.999200 -4.873190 0.637084 2.361008 86.998639 14.760231 37.483741 -136.673191 48.184911 -99.123945 0.412529 -0.298313 -19.791534 -47.526576 34.730791 -32.415900 7.125000 0.000000 0.000000 -7.604200 16.010000 -9.476500 
